<?xml version="1.0" standalone="no"?><!DOCTYPE svg PUBLIC "-//W3C//DTD SVG 1.1//EN" "http://www.w3.org/Graphics/SVG/1.1/DTD/svg11.dtd"><svg t="1497852957120" class="icon" style="" viewBox="0 0 1024 1024" version="1.1" xmlns="http://www.w3.org/2000/svg" p-id="998" xmlns:xlink="http://www.w3.org/1999/xlink" width="32" height="32"><defs><style type="text/css"></style></defs><path d="M707.648982 120.703059c-67.188238 0-121.044844 24.12956-168.551834 71.638597-0.027629 0.025583-0.053212 0.047072-0.080841 0.075725a0.138146 0.138146 0 0 1-0.016373 0.019443l-26.999934 33.987069-27.001981-31.952736c-0.025583-0.027629-0.053212-0.050142-0.077771-0.083912-0.005117 0-0.011256-0.00307-0.016373-0.008186-47.509037-47.509037-101.365642-73.676-168.554904-73.676-67.191308 0-130.364093 26.166963-177.87313 73.676-47.505967 47.505967-73.66986 110.672612-73.672929 177.86699-0.00307 67.155493 26.133194 130.291438 73.597205 177.797406l333.908905 336.714811a55.882751 55.882751 0 0 0 39.692001 16.537651 55.895031 55.895031 0 0 0 39.692001-16.537651l333.886393-336.695369c47.470151-47.50085 73.619718-110.648053 73.619718-177.811731 0.001023-67.190285-26.164916-130.36-73.677023-177.872107-47.515177-47.509037-110.684892-73.676-177.87313-73.676z" fill="#F06557" p-id="999"></path></svg>